<?xml version="1.0" standalone="no"?>
<!DOCTYPE svg PUBLIC "-//W3C//DTD SVG 20010904//EN"
 "http://www.w3.org/TR/2001/REC-SVG-20010904/DTD/svg10.dtd">
<svg version="1.0" xmlns="http://www.w3.org/2000/svg"
 width="100.000000pt" height="100.000000pt" viewBox="0 0 100.000000 100.000000"
 preserveAspectRatio="xMidYMid meet">
<metadata>
Created by potrace 1.11, written by Peter Selinger 2001-2013
</metadata>
<g transform="translate(0.000000,100.000000) scale(0.100000,-0.100000)"
fill="#000000" stroke="none">
<path d="M4 988 c-3 -4 -4 -227 -3 -495 l1 -488 499 0 498 0 0 493 0 492 -57
1 c-219 5 -935 3 -938 -3z m911 -198 c3 -5 -3 -22 -14 -37 -15 -20 -22 -51
-27 -113 -3 -46 -10 -95 -15 -108 -18 -48 -11 -83 26 -118 l35 -33 -20 -55
c-12 -30 -29 -65 -38 -77 -17 -20 -19 -20 -55 -5 -21 8 -62 19 -90 22 -72 10
-131 37 -158 73 -13 17 -25 31 -29 31 -3 0 -11 -19 -17 -43 -9 -34 -20 -47
-51 -65 -22 -12 -45 -22 -51 -22 -7 0 -31 -9 -53 -20 -23 -11 -47 -20 -54 -20
-6 0 -28 18 -48 40 -34 38 -42 59 -37 105 2 27 -17 73 -49 115 -15 19 -33 53
-40 75 -14 43 -52 109 -70 120 -20 13 -10 35 16 35 42 0 93 -38 115 -85 11
-23 31 -53 44 -65 l24 -22 28 40 c36 52 68 68 97 49 19 -13 23 -12 39 10 19
24 18 24 -23 69 -23 25 -40 50 -37 57 7 23 52 19 77 -8 28 -30 41 -31 65 -5
38 43 82 12 51 -35 -21 -32 -15 -43 23 -37 19 3 42 -3 63 -16 18 -11 56 -29
84 -40 l51 -19 12 49 c6 27 11 61 11 75 0 49 94 117 115 83z"/>
<path d="M483 564 c-3 -8 1 -22 10 -31 14 -14 17 -14 37 0 l21 15 -23 16 c-28
20 -37 20 -45 0z"/>
<path d="M359 513 c-13 -16 -12 -17 4 -4 16 13 21 21 13 21 -2 0 -10 -8 -17
-17z"/>
</g>
</svg>
